<svg version="1" xmlns="http://www.w3.org/2000/svg" width="682.667" height="682.667" viewBox="0 0 512.000000 512.000000"><path d="M0 256v256h512V0H0v256zM294.5 75.8c25.9 5.7 45.1 15.7 61.6 32.1 17.6 17.7 27.8 38.2 33.4 67.3l1.3 6.8h-46.7l-1.2-4.3c-5.9-21.8-11.8-33.6-21.7-43.6-16-16-33.2-22.3-61.2-22.3-22.5-.1-36 3.6-51.7 13.9-24.6 16.1-39.3 47.4-43.4 92.2-1.6 17.9-.7 71.7 1.5 84.1 7.5 43 26.3 72.7 55.2 87.3 14.4 7.3 26.3 9.8 46.4 9.8 32.1-.1 56.1-6.9 70.2-19.9l5.8-5.4V294h-82v-38h129v130.5l-7 8.2c-18.1 21.1-47.1 35.2-84.4 41-13.4 2.1-47.2 2.4-58.6.5-33.2-5.5-57.9-18-79.5-40.3-24.1-24.8-38.1-56.8-43-98.4-2-16.6-2-69.4 0-87.4 6.7-59.9 31.5-101.5 73.2-122.4C205 81 217.7 77 234 74.4c12.8-2 48.7-1.2 60.5 1.4z"/></svg>